
    <svg id="svg" width="100%" height="100%" class="nvd3-svg" title="test2" version="1.1" xmlns="http://www.w3.org/2000/svg"><g class="nvd3 nv-wrap nv-discreteBarWithAxes"><g transform="translate(60,15)"><defs><clipPath id="nv-x-label-clip-2431"><rect width="204.44444444444446" height="16" x="-102.22222222222223"></rect></clipPath></defs><g class="nv-x nv-axis nvd3-svg" transform="translate(0,901)"><g class="nvd3 nv-wrap nv-axis"><g><g class="tick zero" transform="translate(62.46913580246914,0)" style="opacity: 1;"><line y2="-901" x2="0"></line><text dy=".71em" y="3" transform="translate(0,5)" style="text-anchor: middle;" x="0">Response</text></g><g class="tick zero" transform="translate(176.0493827160494,0)" style="opacity: 1;"><line y2="-901" x2="0"></line><text dy=".71em" y="3" transform="translate(0,17)" style="text-anchor: middle;" x="0">3-4 months a year</text></g><g class="tick zero" transform="translate(289.6296296296297,0)" style="opacity: 1;"><line y2="-901" x2="0"></line><text dy=".71em" y="3" transform="translate(0,5)" style="text-anchor: middle;" x="0">7-9 months a year</text></g><g class="tick zero" transform="translate(403.20987654320993,0)" style="opacity: 1;"><line y2="-901" x2="0"></line><text dy=".71em" y="3" transform="translate(0,17)" style="text-anchor: middle;" x="0">5-6 months a year</text></g><g class="tick zero" transform="translate(516.7901234567902,0)" style="opacity: 1;"><line y2="-901" x2="0"></line><text dy=".71em" y="3" transform="translate(0,5)" style="text-anchor: middle;" x="0">All year long</text></g><g class="tick zero" transform="translate(630.3703703703704,0)" style="opacity: 1;"><line y2="-901" x2="0"></line><text dy=".71em" y="3" transform="translate(0,17)" style="text-anchor: middle;" x="0">Never</text></g><g class="tick zero" transform="translate(743.9506172839506,0)" style="opacity: 1;"><line y2="-901" x2="0"></line><text dy=".71em" y="3" transform="translate(0,5)" style="text-anchor: middle;" x="0">1-2 months a year</text></g><g class="tick zero" transform="translate(857.530864197531,0)" style="opacity: 1;"><line y2="-901" x2="0"></line><text dy=".71em" y="3" transform="translate(0,17)" style="text-anchor: middle;" x="0">Toute l’année</text></g><path class="domain" d="M0,0V0H920V0"></path><text class="nv-axislabel" text-anchor="middle" y="36" x="460.00000000000006" transform="translate(0,17)"></text></g></g></g><g class="nv-y nv-axis nvd3-svg"><g class="nv-zeroLine"><line x1="0" x2="920" y1="901" y2="901"></line></g><g class="nvd3 nv-wrap nv-axis"><g><g class="tick zero" transform="translate(0,901)" style="opacity: 1;"><line x2="920" y2="0"></line><text dy=".32em" x="-3" opacity="0" style="text-anchor: end;" y="0">0.0</text></g><g class="tick" transform="translate(0,804.3695652173913)" style="opacity: 1;"><line x2="920" y2="0"></line><text dy=".32em" x="-3" opacity="1" style="text-anchor: end;" y="0">20.0</text></g><g class="tick" transform="translate(0,707.7391304347826)" style="opacity: 1;"><line x2="920" y2="0"></line><text dy=".32em" x="-3" opacity="1" style="text-anchor: end;" y="0">40.0</text></g><g class="tick" transform="translate(0,611.1086956521739)" style="opacity: 1;"><line x2="920" y2="0"></line><text dy=".32em" x="-3" opacity="1" style="text-anchor: end;" y="0">60.0</text></g><g class="tick" transform="translate(0,514.4782608695652)" style="opacity: 1;"><line x2="920" y2="0"></line><text dy=".32em" x="-3" opacity="1" style="text-anchor: end;" y="0">80.0</text></g><g class="tick" transform="translate(0,417.84782608695656)" style="opacity: 1;"><line x2="920" y2="0"></line><text dy=".32em" x="-3" opacity="1" style="text-anchor: end;" y="0">100.0</text></g><g class="tick" transform="translate(0,321.2173913043478)" style="opacity: 1;"><line x2="920" y2="0"></line><text dy=".32em" x="-3" opacity="1" style="text-anchor: end;" y="0">120.0</text></g><g class="tick" transform="translate(0,224.58695652173907)" style="opacity: 1;"><line x2="920" y2="0"></line><text dy=".32em" x="-3" opacity="1" style="text-anchor: end;" y="0">140.0</text></g><g class="tick" transform="translate(0,127.95652173913047)" style="opacity: 1;"><line x2="920" y2="0"></line><text dy=".32em" x="-3" opacity="1" style="text-anchor: end;" y="0">160.0</text></g><g class="tick" transform="translate(0,31.326086956521728)" style="opacity: 1;"><line x2="920" y2="0"></line><text dy=".32em" x="-3" opacity="1" style="text-anchor: end;" y="0">180.0</text></g><path class="domain" d="M0,12H0V901H0"></path><text class="nv-axislabel" transform="rotate(-90)" y="-50" x="-450.5" style="text-anchor: middle;"></text></g><g class="nv-axisMaxMin nv-axisMaxMin-y nv-axisMin-y" transform="translate(0,901)"><text dy=".32em" y="0" x="-3" text-anchor="end" style="opacity: 1;">0.0</text></g><g class="nv-axisMaxMin nv-axisMaxMin-y nv-axisMax-y" transform="translate(0,12)"><text dy=".32em" y="0" x="-3" text-anchor="end" style="opacity: 1;">184.0</text></g></g></g><g class="nv-barsWrap nvd3-svg"><g class="nvd3 nv-wrap nv-discretebar" transform="translate(0,0)"><g><g class="nv-groups"><g class="nv-group nv-series-0" style="stroke-opacity: 1; fill-opacity: 0.75;"><g transform="translate(16.469135284423828,896.16845703125)" class="nv-bar positive" style="fill: rgb(31, 119, 180); stroke: rgb(31, 119, 180);"><rect height="4.83152173913038" width="92.00000000000001" class="discreteBar"></rect><text text-anchor="middle" y="-4" x="46.00000000000001">1.00</text></g><g transform="translate(130.04937744140625,475.8260803222656)" class="nv-bar positive" style="fill: rgb(174, 199, 232); stroke: rgb(174, 199, 232);"><rect height="425.17391304347825" width="92.00000000000001" class="discreteBar"></rect><text text-anchor="middle" y="-4" x="46.00000000000001">88.00</text></g><g transform="translate(243.62962341308594,287.396728515625)" class="nv-bar positive" style="fill: rgb(255, 127, 14); stroke: rgb(255, 127, 14);"><rect height="613.6032608695652" width="92.00000000000001" class="discreteBar"></rect><text text-anchor="middle" y="-4" x="46.00000000000001">127.00</text></g><g transform="translate(357.2098693847656,12)" class="nv-bar positive" style="fill: rgb(255, 187, 120); stroke: rgb(255, 187, 120);"><rect height="889" width="92.00000000000001" class="discreteBar"></rect><text text-anchor="middle" y="-4" x="46.00000000000001">184.00</text></g><g transform="translate(470.7901306152344,567.625)" class="nv-bar positive" style="fill: rgb(44, 160, 44); stroke: rgb(44, 160, 44);"><rect height="333.375" width="92.00000000000001" class="discreteBar"></rect><text text-anchor="middle" y="-4" x="46.00000000000001">69.00</text></g><g transform="translate(584.370361328125,823.6956787109375)" class="nv-bar positive" style="fill: rgb(152, 223, 138); stroke: rgb(152, 223, 138);"><rect height="77.30434782608688" width="92.00000000000001" class="discreteBar"></rect><text text-anchor="middle" y="-4" x="46.00000000000001">16.00</text></g><g transform="translate(697.9506225585938,823.6956787109375)" class="nv-bar positive" style="fill: rgb(214, 39, 40); stroke: rgb(214, 39, 40);"><rect height="77.30434782608688" width="92.00000000000001" class="discreteBar"></rect><text text-anchor="middle" y="-4" x="46.00000000000001">16.00</text></g><g transform="translate(811.5308837890625,891.3369750976562)" class="nv-bar positive" style="fill: rgb(255, 152, 150); stroke: rgb(255, 152, 150);"><rect height="9.663043478260875" width="92.00000000000001" class="discreteBar"></rect><text text-anchor="middle" y="-4" x="46.00000000000001">2.00</text></g></g></g></g></g></g></g></g></svg>
