    <svg id="svg" width="600" height="400" class="nvd3-svg" title="test2" version="1.1" xmlns="http://www.w3.org/2000/svg"><g class="nvd3 nv-wrap nv-discreteBarWithAxes"><g transform="translate(60,15)"><defs><clipPath id="nv-x-label-clip-7745"><rect width="98.66666666666667" height="16" x="-49.333333333333336"></rect></clipPath></defs><g class="nv-x nv-axis nvd3-svg" transform="translate(0,639)"><g class="nvd3 nv-wrap nv-axis"><g><g class="tick zero" transform="translate(30.14814814814815,0)" style="opacity: 1;"><line y2="-639" x2="0"></line><text dy=".71em" y="3" transform="translate(0,5)" style="text-anchor: middle;" x="0">Response</text></g><g class="tick zero" transform="translate(84.96296296296296,0)" style="opacity: 1;"><line y2="-639" x2="0"></line><text dy=".71em" y="3" transform="translate(0,17)" style="text-anchor: middle;" x="0">3-4 months a year</text></g><g class="tick zero" transform="translate(139.77777777777777,0)" style="opacity: 1;"><line y2="-639" x2="0"></line><text dy=".71em" y="3" transform="translate(0,5)" style="text-anchor: middle;" x="0">7-9 months a year</text></g><g class="tick zero" transform="translate(194.5925925925926,0)" style="opacity: 1;"><line y2="-639" x2="0"></line><text dy=".71em" y="3" transform="translate(0,17)" style="text-anchor: middle;" x="0">5-6 months a year</text></g><g class="tick zero" transform="translate(249.40740740740742,0)" style="opacity: 1;"><line y2="-639" x2="0"></line><text dy=".71em" y="3" transform="translate(0,5)" style="text-anchor: middle;" x="0">All year long</text></g><g class="tick zero" transform="translate(304.22222222222223,0)" style="opacity: 1;"><line y2="-639" x2="0"></line><text dy=".71em" y="3" transform="translate(0,17)" style="text-anchor: middle;" x="0">Never</text></g><g class="tick zero" transform="translate(359.03703703703707,0)" style="opacity: 1;"><line y2="-639" x2="0"></line><text dy=".71em" y="3" transform="translate(0,5)" style="text-anchor: middle;" x="0">1-2 months a year</text></g><g class="tick zero" transform="translate(413.85185185185185,0)" style="opacity: 1;"><line y2="-639" x2="0"></line><text dy=".71em" y="3" transform="translate(0,17)" style="text-anchor: middle;" x="0">Toute l’année</text></g><path class="domain" d="M0,0V0H444V0"></path><text class="nv-axislabel" text-anchor="middle" y="36" x="222" transform="translate(0,17)"></text></g></g></g><g class="nv-y nv-axis nvd3-svg"><g class="nv-zeroLine"><line x1="0" x2="444" y1="639" y2="639"></line></g><g class="nvd3 nv-wrap nv-axis"><g><g class="tick zero" transform="translate(0,639)" style="opacity: 1;"><line x2="444" y2="0"></line><text dy=".32em" x="-3" opacity="0" style="text-anchor: end;" y="0">0.0</text></g><g class="tick" transform="translate(0,570.8478260869565)" style="opacity: 1;"><line x2="444" y2="0"></line><text dy=".32em" x="-3" opacity="1" style="text-anchor: end;" y="0">20.0</text></g><g class="tick" transform="translate(0,502.69565217391306)" style="opacity: 1;"><line x2="444" y2="0"></line><text dy=".32em" x="-3" opacity="1" style="text-anchor: end;" y="0">40.0</text></g><g class="tick" transform="translate(0,434.54347826086956)" style="opacity: 1;"><line x2="444" y2="0"></line><text dy=".32em" x="-3" opacity="1" style="text-anchor: end;" y="0">60.0</text></g><g class="tick" transform="translate(0,366.3913043478261)" style="opacity: 1;"><line x2="444" y2="0"></line><text dy=".32em" x="-3" opacity="1" style="text-anchor: end;" y="0">80.0</text></g><g class="tick" transform="translate(0,298.2391304347827)" style="opacity: 1;"><line x2="444" y2="0"></line><text dy=".32em" x="-3" opacity="1" style="text-anchor: end;" y="0">100.0</text></g><g class="tick" transform="translate(0,230.08695652173913)" style="opacity: 1;"><line x2="444" y2="0"></line><text dy=".32em" x="-3" opacity="1" style="text-anchor: end;" y="0">120.0</text></g><g class="tick" transform="translate(0,161.93478260869563)" style="opacity: 1;"><line x2="444" y2="0"></line><text dy=".32em" x="-3" opacity="1" style="text-anchor: end;" y="0">140.0</text></g><g class="tick" transform="translate(0,93.78260869565219)" style="opacity: 1;"><line x2="444" y2="0"></line><text dy=".32em" x="-3" opacity="1" style="text-anchor: end;" y="0">160.0</text></g><g class="tick" transform="translate(0,25.63043478260869)" style="opacity: 1;"><line x2="444" y2="0"></line><text dy=".32em" x="-3" opacity="1" style="text-anchor: end;" y="0">180.0</text></g><path class="domain" d="M0,12H0V639H0"></path><text class="nv-axislabel" transform="rotate(-90)" y="-50" x="-319.5" style="text-anchor: middle;"></text></g><g class="nv-axisMaxMin nv-axisMaxMin-y nv-axisMin-y" transform="translate(0,639)"><text dy=".32em" y="0" x="-3" text-anchor="end" style="opacity: 1;">0.0</text></g><g class="nv-axisMaxMin nv-axisMaxMin-y nv-axisMax-y" transform="translate(0,12)"><text dy=".32em" y="0" x="-3" text-anchor="end" style="opacity: 1;">184.0</text></g></g></g><g class="nv-barsWrap nvd3-svg"><g class="nvd3 nv-wrap nv-discretebar" transform="translate(0,0)"><g><g class="nv-groups"><g class="nv-group nv-series-0" style="stroke-opacity: 1; fill-opacity: 0.75;"><g transform="translate(7.948148250579834,635.5924072265625)" class="nv-bar positive" style="fill: rgb(31, 119, 180); stroke: rgb(31, 119, 180);"><rect height="3.4076086956521294" width="44.400000000000006" class="discreteBar"></rect><text text-anchor="middle" y="-4" x="22.200000000000003">1.00</text></g><g transform="translate(62.762962341308594,339.13043212890625)" class="nv-bar positive" style="fill: rgb(174, 199, 232); stroke: rgb(174, 199, 232);"><rect height="299.8695652173913" width="44.400000000000006" class="discreteBar"></rect><text text-anchor="middle" y="-4" x="22.200000000000003">88.00</text></g><g transform="translate(117.57777404785156,206.2336883544922)" class="nv-bar positive" style="fill: rgb(255, 127, 14); stroke: rgb(255, 127, 14);"><rect height="432.766304347826" width="44.400000000000006" class="discreteBar"></rect><text text-anchor="middle" y="-4" x="22.200000000000003">127.00</text></g><g transform="translate(172.39259338378906,12)" class="nv-bar positive" style="fill: rgb(255, 187, 120); stroke: rgb(255, 187, 120);"><rect height="627" width="44.400000000000006" class="discreteBar"></rect><text text-anchor="middle" y="-4" x="22.200000000000003">184.00</text></g><g transform="translate(227.20741271972656,403.875)" class="nv-bar positive" style="fill: rgb(44, 160, 44); stroke: rgb(44, 160, 44);"><rect height="235.125" width="44.400000000000006" class="discreteBar"></rect><text text-anchor="middle" y="-4" x="22.200000000000003">69.00</text></g><g transform="translate(282.022216796875,584.478271484375)" class="nv-bar positive" style="fill: rgb(152, 223, 138); stroke: rgb(152, 223, 138);"><rect height="54.52173913043464" width="44.400000000000006" class="discreteBar"></rect><text text-anchor="middle" y="-4" x="22.200000000000003">16.00</text></g><g transform="translate(336.8370361328125,584.478271484375)" class="nv-bar positive" style="fill: rgb(214, 39, 40); stroke: rgb(214, 39, 40);"><rect height="54.52173913043464" width="44.400000000000006" class="discreteBar"></rect><text text-anchor="middle" y="-4" x="22.200000000000003">16.00</text></g><g transform="translate(391.65185546875,632.1847534179688)" class="nv-bar positive" style="fill: rgb(255, 152, 150); stroke: rgb(255, 152, 150);"><rect height="6.8152173913043725" width="44.400000000000006" class="discreteBar"></rect><text text-anchor="middle" y="-4" x="22.200000000000003">2.00</text></g></g></g></g></g></g></g></g></svg>
