<?xml version="1.0" standalone="no"?>
<?xml-stylesheet href="../lib/nv.d3.css" type="text/css"?>
<svg id="chart" width="600" height="600" class="nvd3-svg" title="test2" version="1.1" xmlns="http://www.w3.org/2000/svg"><g class="nvd3 nv-wrap nv-pie nv-chart-9831" transform="translate(0,0)"><g><g class="nv-pie" transform="translate(300,300)"><g class="nv-slice" fill="#1f77b4" stroke="#1f77b4"><path d="M1.469576158976824e-14,-240A240,240 0 0,1 214.5219417963033,-107.61197186160773L93.8533495358827,-47.08023768945338A105,105 0 0,0 6.429395695523604e-15,-105Z"></path></g><g class="nv-slice" fill="#aec7e8" stroke="#aec7e8"><path d="M214.5219417963033,-107.61197186160773A240,240 0 0,1 102.18702997561748,217.15849259184466L44.706825614332644,95.00684050893204A105,105 0 0,0 93.8533495358827,-47.08023768945338Z"></path></g><g class="nv-slice" fill="#ff7f0e" stroke="#ff7f0e"><path d="M102.18702997561748,217.15849259184466A240,240 0 0,1 -229.16749073919433,-71.28997957848833L-100.26077719839752,-31.189366065588644A105,105 0 0,0 44.706825614332644,95.00684050893204Z"></path></g><g class="nv-slice" fill="#ffbb78" stroke="#ffbb78"><path d="M-229.16749073919433,-71.28997957848833A240,240 0 0,1 -93.92968004092859,-220.85564336780888L-41.09423501790626,-96.62434397341639A105,105 0 0,0 -100.26077719839752,-31.189366065588644Z"></path></g><g class="nv-slice" fill="#2ca02c" stroke="#2ca02c"><path d="M-93.92968004092859,-220.85564336780888A240,240 0 0,1 -47.93039532345771,-235.16521257221925L-20.969547954012747,-102.88478050034593A105,105 0 0,0 -41.09423501790626,-96.62434397341639Z"></path></g><g class="nv-slice" fill="#98df8a" stroke="#98df8a"><path d="M-47.93039532345771,-235.16521257221925A240,240 0 0,1 -4.408728476930471e-14,-240L-1.928818708657081e-14,-105A105,105 0 0,0 -20.969547954012747,-102.88478050034593Z"></path></g></g><g class="nv-pieLabels" transform="translate(300,300)"><g class="nv-label" transform="translate(145.73595981425956,-236.150968698027)"><rect rx="3" ry="3" style="stroke: rgb(255, 255, 255); fill: rgb(255, 255, 255);"></rect><text style="text-anchor: middle; fill: rgb(0, 0, 0);">3-4 months a year</text></g><g class="nv-label" transform="translate(262.2550033623958,90.71142822924652)"><rect rx="3" ry="3" style="stroke: rgb(255, 255, 255); fill: rgb(255, 255, 255);"></rect><text style="text-anchor: middle; fill: rgb(0, 0, 0);">7-9 months a year</text></g><g class="nv-label" transform="translate(-182.20254722144537,209.30475815426885)"><rect rx="3" ry="3" style="stroke: rgb(255, 255, 255); fill: rgb(255, 255, 255);"></rect><text style="text-anchor: middle; fill: rgb(0, 0, 0);">5-6 months a year</text></g><g class="nv-label" transform="translate(-205.83334193500008,-186.11524748893987)"><rect rx="3" ry="3" style="stroke: rgb(255, 255, 255); fill: rgb(255, 255, 255);"></rect><text style="text-anchor: middle; fill: rgb(0, 0, 0);">All year long</text></g><g class="nv-label" transform="translate(-82.4290388876272,-264.9749111671934)"><rect rx="3" ry="3" style="stroke: rgb(255, 255, 255); fill: rgb(255, 255, 255);"></rect><text style="text-anchor: middle; fill: rgb(0, 0, 0);">Never</text></g><g class="nv-label" transform="translate(-27.850375871212172,-276.0989072123108)"><rect rx="3" ry="3" style="stroke: rgb(255, 255, 255); fill: rgb(255, 255, 255);"></rect><text style="text-anchor: middle; fill: rgb(0, 0, 0);">1-2 months a year</text></g></g></g></g></svg>